<?xml version="1.0" encoding="UTF-8"?>
<svg id="Layer_2" data-name="Layer 2" xmlns="http://www.w3.org/2000/svg" xmlns:xlink="http://www.w3.org/1999/xlink" viewBox="0 0 49.85 45.88">
  <defs>
    <style>
      .cls-1 {
        fill: none;
      }

      .cls-2 {
        fill: #60bfcd;
      }

      .cls-3 {
        clip-path: url(#clippath);
      }
    </style>
    <clipPath id="clippath">
      <rect class="cls-1" x=".01" width="49.82" height="45.88"/>
    </clipPath>
  </defs>
  <g id="Layer_1-2" data-name="Layer 1">
    <g id="Grupo_82" data-name="Grupo 82">
      <g class="cls-3">
        <g id="Grupo_32" data-name="Grupo 32">
          <path id="Caminho_65" data-name="Caminho 65" class="cls-2" d="M49.12,22.66c-.76-.81-1.74-1.37-2.83-1.61-.62-.02-1.25,0-1.87.07-.1,0-.19.03-.28.08-1.23.65-2.38,1.42-3.45,2.31-1.95,1.63-3.55,2.95-4.79,3.96-.65.53-1.1.88-1.36,1.05-.04.03-.1.02-.13-.03,0-.01-.01-.02-.01-.04,0-1.11-.57-2.15-1.51-2.76-.54-.32-1.13-.54-1.75-.65-.05,0-.09-.06-.08-.11,0-.02.01-.03.02-.05.41-.49.9-.91,1.45-1.25.1-.06.19-.14.28-.22,2.48-2.38,5.31-4.74,7.13-6.76,1.37-1.48,2.27-3.32,2.61-5.31.13-.78.21-1.24.24-1.37.01-.05.02-.1.02-.16.07-2.25-.6-4.47-1.91-6.3-1.16-1.61-2.87-2.75-4.8-3.2-1.23-.29-2.5-.38-3.77-.28-2.58.29-4.92,1.68-6.41,3.81-.05.07-.16.08-.23.03-.01,0-.02-.02-.03-.03-1.01-1.39-2.37-2.48-3.95-3.15-1.95-.77-4.1-.91-6.13-.38-4.91,1.37-7.77,6.46-6.4,11.37.04.14.08.28.13.42.61,2.01,1.73,3.82,3.26,5.26.91.9,1.8,1.85,2.82,2.77,1.16,1.04,2.31,2.11,3.45,3.19.4.38.82.74,1.27,1.07.11.06.2.17.24.28.02.11-.05.21-.16.24-.01,0-.03,0-.04,0-1.87-.05-3.83-.06-5.88-.04-.49-.01-.97.04-1.45.14-1.09.32-2.14.78-3.1,1.39-1.63,1.02-4.63,3.09-9.01,6.22-.32.19-.58.48-.72.82-.02.06-.02.12,0,.18.12.67.51.9,1.16.7.06-.02.12-.05.17-.09,1.31-.99,2.61-1.91,3.89-2.76,1.28-.85,2.55-1.72,3.8-2.59.32-.23.57-.39.75-.48.63-.41,1.28-.77,1.96-1.09,1.47-.59,3.04-.88,4.63-.84,2.91.06,6.62.16,10.31.06,1.27-.03,2.36.12,3.77.12.02,0,.05,0,.07,0l1.4.42c.07.02.14.06.19.11.35.34.56.8.57,1.29.13.56-.16,1.14-.69,1.37-.95.47-1.98.75-3.03.83-1.66.13-3.15.26-4.47.39-.23.02-1.99.16-5.27.41-.37.02-.73.12-1.05.3-.25.13-.39.4-.35.68.07.23.22.44.42.58.07.06.15.09.24.09,1.37,0,2.75-.07,4.12-.21,1.38-.04,2.32-.09,2.81-.14l3.57-.38c1.66-.1,3.27-.58,4.71-1.41.05-.03.68-.44,1.87-1.24.64-.43,1.24-.87,1.8-1.33,1.55-1.28,3.46-2.82,5.72-4.63.16-.12.71-.44,1.66-.97.04-.02.09-.04.14-.04l.86-.12s.07,0,.11,0c.77.14,1.49.51,2.04,1.07.32.33.3.85-.03,1.17-.01.01-.03.02-.04.04-1.96,2.25-4.42,4.93-7.37,8.04-2.16,2.41-4.75,4.41-7.63,5.88-1.15.52-2.37.87-3.62,1.02-1.25.17-2.52.26-3.78.27-3.16.02-6.8,0-10.93-.06-.16,0-.31,0-.46.04l-1.29.21c-.06,0-.11.03-.17.05-2.1.93-4,2.26-5.59,3.92-.34.34-.35.89-.03,1.25l.03.03c.3.34.83.37,1.17.07.01-.01.03-.02.04-.04.89-.92,1.85-1.77,2.88-2.53,1.5-.89,3.23-1.29,4.96-1.15,3.01.02,5.63.03,7.86.03,2.29.15,4.58-.05,6.81-.6,1.48-.42,2.91-.99,4.27-1.7,2-1.12,3.83-2.53,5.43-4.19.78-.79,3.38-3.56,7.78-8.31.52-.56.98-1.18,1.37-1.83.56-.87.4-2.01-.37-2.69M29.77,23.72c-.51.45-1.06.83-1.66,1.15-.02.01-.05.02-.08.02h-4.25c-.23,0-.46-.04-.67-.11-.02,0-.24-.18-.68-.53-.91-.72-1.99-1.91-3.15-2.92-2.08-1.77-4.07-3.66-5.95-5.65-1.8-1.87-2.79-4.39-2.74-6.99.03-.87.23-1.72.59-2.51.51-1.12,1.27-2.11,2.23-2.9.95-.78,2.09-1.28,3.31-1.45,1.76-.28,3.57.05,5.11.95,1.42.8,2.53,2.05,3.15,3.56.15.32.48.52.84.5.21,0,.4-.11.5-.29.45-.93,1.02-1.8,1.7-2.58.73-.77,1.62-1.37,2.62-1.75,1.23-.37,2.51-.51,3.79-.41,1.28.08,2.5.53,3.54,1.28,2,1.43,3.18,3.73,3.18,6.18-.04.33-.05.65-.02.98.02.09.02.18,0,.28-.09.36-.19.72-.29,1.09-.29,1.16-.84,2.25-1.61,3.17-.67.81-1.39,1.59-2.15,2.32-2.79,2.59-5.24,4.79-7.33,6.6"/>
        </g>
      </g>
    </g>
  </g>
</svg>