<?xml version="1.0" encoding="UTF-8"?>
<svg id="Layer_2" data-name="Layer 2" xmlns="http://www.w3.org/2000/svg" xmlns:xlink="http://www.w3.org/1999/xlink" viewBox="0 0 24.2 30.21">
  <defs>
    <style>
      .cls-1 {
        fill: none;
      }

      .cls-2 {
        fill: #307988;
      }

      .cls-3 {
        clip-path: url(#clippath);
      }
    </style>
    <clipPath id="clippath">
      <rect class="cls-1" y=".03" width="24.2" height="30.16"/>
    </clipPath>
  </defs>
  <g id="Layer_1-2" data-name="Layer 1">
    <g class="cls-3">
      <g id="Grupo_44" data-name="Grupo 44">
        <path id="Caminho_73" data-name="Caminho 73" class="cls-2" d="M20.97,10.93h-.35v-3.8C20.19,2.84,16.4-.32,12.1.03,7.8-.32,4.01,2.84,3.58,7.13v3.8h-.35c-1.63-.13-3.06,1.06-3.22,2.69v13.88c.16,1.63,1.59,2.83,3.22,2.7h17.75c1.63.13,3.06-1.06,3.22-2.69v-13.89c-.16-1.63-1.6-2.82-3.22-2.69M13.46,21.42l.37,2.45c.02.42-.3.77-.72.79-.04,0-.07,0-.11,0h-1.82c-.41.04-.78-.26-.82-.67,0-.04,0-.07,0-.11l.37-2.45c-1.01-.35-1.71-1.28-1.76-2.34.15-1.58,1.55-2.74,3.12-2.6,1.58-.13,2.97,1.03,3.13,2.6-.05,1.07-.75,2-1.76,2.34M17.96,10.93H6.23v-3.8c.3-2.96,2.9-5.13,5.87-4.89,2.96-.24,5.57,1.93,5.87,4.89v3.8Z"/>
      </g>
    </g>
  </g>
</svg>