<?xml version="1.0" encoding="UTF-8"?>
<svg id="Layer_2" data-name="Layer 2" xmlns="http://www.w3.org/2000/svg" xmlns:xlink="http://www.w3.org/1999/xlink" viewBox="0 0 70.78 59.54">
  <defs>
    <style>
      .cls-1 {
        fill: none;
      }

      .cls-2 {
        clip-path: url(#clippath);
      }
    </style>
    <clipPath id="clippath">
      <rect class="cls-1" width="70.78" height="59.54"/>
    </clipPath>
  </defs>
  <g id="Layer_1-2" data-name="Layer 1">
    <g class="cls-2">
      <g id="Grupo_165" data-name="Grupo 165">
        <path id="Caminho_235" data-name="Caminho 235" d="M35.39,22.73c2.85-3.51,7.61-4.85,11.87-3.32,5.93,1.96,8.67,7.92,6.93,14.69-1.27,4.48-3.89,8.45-7.5,11.39-3.07,2.7-6.38,5.14-9.69,7.55-.76.43-1.68.48-2.48.12-5.5-3.24-10.38-7.42-14.42-12.36-2.36-3.06-3.7-6.78-3.81-10.64-.44-4.12,1.71-8.08,5.41-9.95,3.78-2.06,8.42-1.66,11.8,1.01.63.44,1.21.97,1.88,1.53M35.34,25.39c-.97-.89-1.8-1.76-2.74-2.5-2.71-2.36-6.6-2.8-9.78-1.12-3.01,1.41-4.84,4.52-4.61,7.84-.21,3.7,1.09,7.34,3.6,10.07,4.01,4.06,8.53,7.63,12.92,11.29.73.3,1.56.22,2.22-.22,3.61-2.87,7.24-5.72,10.62-8.86,2.84-2.63,4.65-6.19,5.11-10.03.9-4.07-1.09-8.23-4.83-10.08-3.76-2.03-8.44-1.07-11.1,2.27-.41.42-.86.82-1.4,1.34"/>
        <path id="Caminho_236" data-name="Caminho 236" d="M16.51,5.76c.74.91,1.54,1.79,2.22,2.75.87,1.19,1.66,2.44,2.38,3.73.22.42-.03,1.08-.07,1.63-.4-.06-1,.02-1.16-.21-1.56-2.31-3.06-4.66-4.57-7l1.21-.9"/>
        <path id="Caminho_237" data-name="Caminho 237" d="M55.42,6.49c-1.61,2.57-3.08,4.94-4.59,7.27-.11.17-.69.2-.94.07s-.48-.67-.4-.81c1.48-2.31,3.01-4.59,4.57-6.84.05-.07.46.09,1.37.3"/>
        <path id="Caminho_238" data-name="Caminho 238" d="M3.16,20.99c3.01.12,7.13,2.46,7.72,4.24-3.09-.15-5.94-1.71-7.72-4.24"/>
        <path id="Caminho_239" data-name="Caminho 239" d="M0,39.75c2.45-.36,4.9-.74,7.37-1.04.28-.03.72.4.88.72.09.19-.16.66-.39.86-1.03.97-6.57,1.03-7.86-.54"/>
        <path id="Caminho_240" data-name="Caminho 240" d="M66.98,20.5c-.05,2.62-4.83,5.18-7.37,4.06l7.37-4.06"/>
        <path id="Caminho_241" data-name="Caminho 241" d="M69.31,41.28c-2.09-.22-3.65-.32-5.18-.59-.46-.08-.84-.62-1.25-.94.48-.35.97-1.02,1.45-1,1.55.04,3.1.24,4.61.6.68.16,1.24.84,1.85,1.29l-1.47.65"/>
        <path id="Caminho_242" data-name="Caminho 242" d="M7.34,58.16c2.02-1.6,4.02-3.21,6.07-4.76.17-.13.72.03.91.23s.24.79.11.91c-1.96,1.69-3.96,3.34-5.95,4.99l-1.14-1.37"/>
        <path id="Caminho_243" data-name="Caminho 243" d="M62.57,59.29c-2.52-1.34-4.71-3.24-6.39-5.55,2.8-.2,6.64,3.14,6.39,5.55"/>
        <path id="Caminho_244" data-name="Caminho 244" d="M35.9,0c.12.59.2,1.19.24,1.79.05,2.33.1,4.66.04,6.99,0,.34-.56.68-.87,1.01-.27-.37-.75-.72-.76-1.11-.07-2.56-.04-5.12-.04-7.68l1.38-1"/>
      </g>
    </g>
  </g>
</svg>