<?xml version="1.0" encoding="UTF-8"?>
<svg id="Layer_2" data-name="Layer 2" xmlns="http://www.w3.org/2000/svg" xmlns:xlink="http://www.w3.org/1999/xlink" viewBox="0 0 34.45 34.46">
  <defs>
    <style>
      .cls-1 {
        fill: none;
      }

      .cls-2 {
        fill: #307988;
      }

      .cls-3 {
        clip-path: url(#clippath);
      }
    </style>
    <clipPath id="clippath">
      <rect class="cls-1" x="0" y="0" width="34.45" height="34.45"/>
    </clipPath>
  </defs>
  <g id="Layer_1-2" data-name="Layer 1">
    <g class="cls-3">
      <g id="Grupo_149" data-name="Grupo 149">
        <path id="Caminho_140" data-name="Caminho 140" class="cls-2" d="M33.08,3.96l-3.43-3.44c-.7-.7-1.83-.7-2.53,0,0,0,0,0,0,0l-2.03,2.03,5.97,5.97,2.03-2.03c.7-.7.7-1.83,0-2.53,0,0,0,0,0,0"/>
        <path id="Caminho_141" data-name="Caminho 141" class="cls-2" d="M12.55,24.09l.82.82-3.95.81c-.21-.73-.78-1.3-1.51-1.51l.81-3.95.82.82L25.82,4.76l-1.46-1.48L8.05,19.58l-1.25,6.13c-.1.5.22.99.72,1.09.12.03.25.03.37,0l6.13-1.25L30.32,9.25l-1.47-1.47L12.55,24.09Z"/>
        <rect id="Retângulo_187" data-name="Retângulo 187" class="cls-2" x="7.65" y="13.31" width="23.06" height="2.22" transform="translate(-4.58 17.79) rotate(-45)"/>
        <path id="Caminho_142" data-name="Caminho 142" class="cls-2" d="M26.69,33.61H3.33C1.49,33.6,0,32.11,0,30.27V6.92c0-1.84,1.49-3.34,3.33-3.34h16.08c.32,0,.58.26.58.58s-.26.58-.58.58H3.33c-1.2,0-2.17.97-2.17,2.17v23.35c0,1.2.97,2.17,2.17,2.17h23.35c1.2,0,2.17-.97,2.17-2.17V14.19c0-.32.26-.58.58-.58s.58.26.58.58v16.08c0,1.84-1.49,3.33-3.33,3.33"/>
      </g>
    </g>
  </g>
</svg>