<?xml version="1.0" encoding="UTF-8"?>
<svg id="Layer_2" data-name="Layer 2" xmlns="http://www.w3.org/2000/svg" xmlns:xlink="http://www.w3.org/1999/xlink" viewBox="0 0 58.24 40.11">
  <defs>
    <style>
      .cls-1 {
        fill: none;
      }

      .cls-2 {
        fill: #60bfcd;
      }

      .cls-3 {
        clip-path: url(#clippath);
      }
    </style>
    <clipPath id="clippath">
      <rect class="cls-1" x="0" y=".02" width="58.24" height="40.09"/>
    </clipPath>
  </defs>
  <g id="Layer_1-2" data-name="Layer 1">
    <g class="cls-3">
      <g id="Grupo_30" data-name="Grupo 30">
        <path id="Caminho_64" data-name="Caminho 64" class="cls-2" d="M56.68,20.7c-2.42-.16-4.84-.09-7.24.22-.04,0-.08-.02-.08-.06,0-.01,0-.02,0-.03.25-.74.48-1.46.69-2.17.27-.92.62-2.48,1.04-4.7.27-1.26.45-2.53.53-3.81.02-.97.2-1.56-.44-2.19-.09-.09-.22-.13-.34-.11-.72.12-1.43.31-2.12.55-1.24.44-2.47.91-3.68,1.4-.46.18-.9.41-1.32.66-.36.22-.79.48-1.28.76-.08.05-.18.02-.22-.05-.02-.04-.03-.08-.02-.12.1-.88.08-1.76-.05-2.63-.03-.56-.1-1.11-.2-1.66-.28-1.61-.56-2.95-.83-4.01-.11-.59-.61-1.03-1.21-1.06-.08,0-.16,0-.23.03-.59.29-1.13.68-1.59,1.15-1.44,1.34-2.76,2.79-3.96,4.34-.07.09-.21.11-.3.04-.03-.02-.05-.05-.07-.09-.93-1.99-1.98-3.93-3.14-5.79-.42-.7-1.07-1.6-1.97-1.3-.1.04-.18.11-.22.2-1.42,2.31-2.68,4.71-3.78,7.19-.02.05-.08.07-.13.05-.02,0-.03-.02-.04-.03-1.33-1.73-2.79-3.37-4.36-4.89-.3-.3-.56-.28-.82-.55-.72-.75-1.57.14-1.77.86-.48,1.67-.8,3.39-.97,5.12-.14,1.54-.23,2.63-.26,3.26,0,.03-.03.06-.06.06,0,0-.02,0-.03,0-2.2-1.27-4.54-2.28-6.96-3.04-.69-.22-1.4-.34-2.12-.36-.08,0-.16.02-.22.07-.7.48-.36,1.23-.36,1.88.09,1.05.25,2.09.48,3.12.13.82.28,1.59.45,2.31.42,1.79.93,3.61,1.53,5.45.04.13-.04.26-.16.3-.03.01-.07.01-.11,0-2.22-.43-4.48-.58-6.73-.44-.57.03-1.14.18-1.65.44-.25.13-.4.4-.38.68.06.55.17,1.1.34,1.62.74,2.21,1.82,4.3,3.2,6.18,2.16,2.95,4.9,5.42,8.05,7.26.64.38,1.3.71,1.98,1.01,1.1.48,1.78.78,2.05.88,1.63.55,3.31.96,5.02,1.21.67.12,1.35.17,2.03.17,1.18,0,1.85-.01,2.04-.04.97-.13,1.87-.22,2.71-.28.04,0,.07,0,.11-.01l1.41-.31c.15-.03.31-.02.45.04.81.27,1.66.43,2.51.45,4.18.58,8.44-.08,12.25-1.9,2.55-1.19,4.89-2.76,6.95-4.68,1.87-1.73,3.49-3.7,4.83-5.87.78-1.24,1.43-2.56,1.93-3.94.19-.58.31-1.18.37-1.78.11-.9-.88-1-1.55-1.05M35.05,8.97l4.42-5.07s.11-.05.16,0c.02.02.03.04.04.07.05.58.21,1.58.49,2.99.04.63.12,1.25.24,1.87.03.08.04.16.04.24,0,.23.02,1.09.07,2.57-.05.46-.31.87-.7,1.13-1.13.68-2.15,1.52-3.05,2.49-.06.07-.17.08-.24.02-.13-.12-.07-.53-.13-.77-.41-1.63-.9-3.24-1.47-4.83-.08-.24-.03-.5.13-.69M18.11,11.34c.05-1.57.19-3.13.44-4.67.21-.83.37-1.6.48-2.31.02-.11.12-.19.23-.17.05,0,.09.03.12.06.08.09.12.27.23.38,1.49,1.47,2.83,3.09,3.99,4.83.05.08.06.18.03.28-.67,1.83-1.21,3.7-1.61,5.61-.01.06-.07.1-.13.08-.02,0-.04-.02-.06-.03-.63-.74-1.38-1.38-2.21-1.89-.32-.16-.44-.41-.84-.61-.53-.32-.81-.95-.68-1.56M24.89,38.29c-.5.05-1,.06-1.5.04-1.2-.09-2.39-.25-3.56-.48-2.9-.51-5.68-1.58-8.17-3.15-1.36-.86-2.63-1.86-3.8-2.97-1.42-1.41-2.69-2.96-3.78-4.63-.82-1.36-1.51-2.79-2.04-4.28-.05-.11,0-.23.11-.28.03-.01.05-.02.08-.02,2.39-.06,4.79.03,7.17.27.28.03.52.2.63.46.6,1.33,1.27,2.63,2,3.89,1.45,2.3,3.25,4.37,5.33,6.14.97.8,1.98,1.56,3.04,2.25.67.46,1.6.79,2.17,1.26l.06.03,2.31,1.17c.08.04.12.14.08.22-.03.05-.08.09-.14.1M26.02,36.54c-1.07-.58-2.55-1.42-4.44-2.53-3.11-1.86-5.77-4.38-7.8-7.38-1.41-2.2-2.51-4.6-3.24-7.11-1.06-3.09-1.81-6.28-2.24-9.52,0-.05.03-.1.08-.11.02,0,.03,0,.05,0,1.88.64,3.73,1.38,5.53,2.23,1.14.53,2.22,1.18,3.22,1.93,1.61,1.2,2.61,1.96,2.99,2.29.44.44.84.91,1.21,1.42.05.06.08.14.07.22-.09,1.64-.11,3.08-.06,4.3.09,2.1.42,4.19,1,6.21.64,2.06,1.48,4.05,2.51,5.94.33.65.92,1.25,1.28,1.97.02.05,0,.11-.05.14-.03.01-.06.01-.09,0M29.17,37.03s-.11.04-.15,0c-.33-.29-.61-.63-.83-1.01-.12-.2-.56-.88-1.33-2.06-1.1-1.67-1.96-3.49-2.56-5.4-.02-.06-.14-.52-.39-1.39-.13-.46-.24-.93-.31-1.4-.27-1.75-.41-3.51-.41-5.27.04-1.39.18-2.77.42-4.14.32-1.58.74-3.13,1.26-4.66.51-1.52,1.13-3.01,1.85-4.44.52-1.07,1.28-2.58,2.27-4.54.05-.08.15-.12.24-.07.03.02.06.04.07.07,1.07,1.9,1.9,3.17,2.62,4.75.85,1.81,1.57,3.68,2.17,5.59.79,2.63,1.22,5.36,1.29,8.11-.05,1.3-.2,2.6-.44,3.89-.34,2.09-.95,4.13-1.81,6.07-.95,2.2-2.3,4.2-3.98,5.91M32.14,36.65c-.06,0-.11-.04-.12-.1,0-.03,0-.05.02-.07,1.06-1.3,1.94-2.73,2.62-4.26,1.98-4.35,2.8-9.13,2.37-13.89-.02-.24.05-.48.21-.67l1.13-1.38s.06-.07.1-.1c1.65-1.37,3.41-2.59,5.28-3.65.04-.02.52-.28,1.45-.78.49-.25.99-.48,1.51-.68,1.27-.48,2.2-.85,2.79-1.11.13-.06.29,0,.34.14.02.04.02.08.02.12-.28,2.95-.87,5.86-1.77,8.69-.14.44-.45,1.32-.93,2.64-.31.88-.69,1.73-1.12,2.55-2.76,5.18-7.11,9.34-12.41,11.87-.23.12-.46.25-.67.39-.25.17-.53.27-.83.28M56.29,22.8c-.66,1.69-1.52,3.3-2.57,4.78-2.67,3.91-6.37,7.02-10.69,8.97-1.58.66-3.23,1.13-4.92,1.4-.69.13-1.39.2-2.09.22-.83.07-1.66.07-2.49,0-.06-.01-.1-.08-.09-.14,0-.04.04-.07.08-.08,1.38-.5,2.71-1.15,3.95-1.95,3.7-2.36,6.82-5.51,9.16-9.23.69-1.13,1.31-2.29,1.87-3.49.09-.21.28-.36.49-.41.44-.14.9-.2,1.36-.16.26,0,.52-.03.77-.08,1.74-.12,2.99-.2,3.77-.23.39-.02.79,0,1.18.03.15.02.25.16.23.31,0,.02,0,.04-.02.06"/>
      </g>
    </g>
  </g>
</svg>