<?xml version="1.0" encoding="UTF-8"?>
<svg id="Layer_2" data-name="Layer 2" xmlns="http://www.w3.org/2000/svg" xmlns:xlink="http://www.w3.org/1999/xlink" viewBox="0 0 38.24 44.98">
  <defs>
    <style>
      .cls-1 {
        fill: none;
      }

      .cls-2 {
        clip-path: url(#clippath);
      }
    </style>
    <clipPath id="clippath">
      <rect class="cls-1" width="38.24" height="44.98"/>
    </clipPath>
  </defs>
  <g id="Layer_1-2" data-name="Layer 1">
    <g class="cls-2">
      <g id="Grupo_97" data-name="Grupo 97">
        <path id="Caminho_78" data-name="Caminho 78" d="M33.94,0L4.22.05C1.89.06,0,1.95,0,4.29l.06,36.48c0,2.33,1.9,4.22,4.23,4.22,0,0,0,0,0,0l29.72-.05c2.33,0,4.22-1.9,4.22-4.24l-.06-36.48C38.17,1.89,36.27,0,33.94,0M7.75,2.13c0-.06.05-.11.11-.11,0,0,0,0,0,0,13,0,21.73,0,26.19,0,.35,0,.7.09,1.01.28.92.56,1.45,1.58,1.38,2.66,0,11.75.02,22.09.02,31.02.08.58-.15,1.15-.61,1.51-.48.4-1.07.63-1.69.66-8.97,0-17.73,0-26.28,0-.07,0-.13-.06-.13-.13h0V2.13ZM1.81,36.84c-.02-3.32-.03-13.92-.04-31.81-.03-.5.04-1.01.2-1.48.24-.78.9-1.36,1.71-1.5.36-.03,1.1-.05,2.21-.06.11,0,.2.09.2.2,0,0,0,0,0,0v35.62c0,.19-.16.35-.35.35h-3.56c-.17,0-.31-.13-.32-.3-.04-.55-.05-.88-.05-1.02M35.33,42.56c-.61.47-1.1.41-2,.41H4.47c-.34,0-.67-.02-1-.06-.08,0-.15-.03-.22-.06-.95-.35-1.5-1.36-1.28-2.35.04-.3.3-.53.61-.53,15.71-.01,25.81-.01,30.31,0,.99.09,1.99-.02,2.95-.31.23-.09.5.02.59.26.02.04.03.08.03.12.13.99-.29,1.96-1.11,2.54"/>
      </g>
    </g>
  </g>
</svg>