<?xml version="1.0" encoding="UTF-8"?>
<svg id="Layer_2" data-name="Layer 2" xmlns="http://www.w3.org/2000/svg" xmlns:xlink="http://www.w3.org/1999/xlink" viewBox="0 0 49.87 38.47">
  <defs>
    <clipPath id="clippath">
      <rect width="49.87" height="38.47"/>
    </clipPath>
  </defs>
  <g id="Layer_1-2" data-name="Layer 1">
    <g id="Grupo_130" data-name="Grupo 130">
      <g clip-path="url(#clippath)">
        <g id="Grupo_129" data-name="Grupo 129">
          <path id="Caminho_85" data-name="Caminho 85" fill="#2F7888" d="M5.05,34.54c-1.21.2-2.36-.62-2.56-1.83-.02-.12-.03-.24-.03-.37V5.02c-.64.19-1.28.41-1.92.65-.32.13-.54.44-.55.78v31.19c0,.46.36.84.82.84.11,0,.21-.02.31-.06,3.76-1.41,7.74-2.15,11.76-2.17,2.17,0,4.33.22,6.45.66-1.63-.81-3.34-1.45-5.1-1.92-3-.8-6.13-.95-9.2-.45"/>
          <path id="Caminho_86" data-name="Caminho 86" fill="#2F7888" d="M49.33,5.67c-.64-.23-1.28-.45-1.92-.65v27.33c0,1.23-.99,2.22-2.22,2.23-.12,0-.24,0-.36-.03-3.06-.5-6.2-.35-9.2.45-1.76.47-3.46,1.11-5.09,1.93,2.12-.43,4.28-.65,6.45-.66,4.02.02,8,.76,11.76,2.17.09.03.19.05.28.05.46,0,.83-.37.84-.83,0,0,0,0,0,0V6.45c0-.35-.22-.66-.55-.78"/>
          <path id="Caminho_87" data-name="Caminho 87" fill="#2F7888" d="M4.58.33c-.41.06-.72.41-.72.83v31.19c0,.46.37.83.84.83.04,0,.09,0,.13-.01,3.26-.53,6.59-.37,9.78.47,3.43.95,6.67,2.47,9.58,4.5V4.95c-2.82-1.84-5.91-3.23-9.16-4.12C11.61-.07,8.06-.24,4.58.33"/>
          <path id="Caminho_88" data-name="Caminho 88" fill="#2F7888" d="M45.06,33.17c.46.08.89-.23.96-.69,0-.05.01-.09.01-.14V1.14c0-.41-.31-.76-.72-.82-3.48-.57-7.04-.39-10.45.51-3.25.89-6.34,2.28-9.16,4.12v33.19c2.92-2.03,6.16-3.55,9.58-4.5,3.19-.85,6.52-1.01,9.78-.47"/>
        </g>
      </g>
    </g>
  </g>
</svg>