<?xml version="1.0" encoding="UTF-8"?>
<svg id="Layer_2" data-name="Layer 2" xmlns="http://www.w3.org/2000/svg" xmlns:xlink="http://www.w3.org/1999/xlink" viewBox="0 0 42.93 45">
  <defs>
    <style>
      .cls-1 {
        fill: none;
      }

      .cls-2 {
        clip-path: url(#clippath);
      }
    </style>
    <clipPath id="clippath">
      <rect class="cls-1" y=".02" width="42.93" height="44.98"/>
    </clipPath>
  </defs>
  <g id="Layer_1-2" data-name="Layer 1">
    <g class="cls-2">
      <g id="Grupo_95" data-name="Grupo 95">
        <path id="Caminho_77" data-name="Caminho 77" d="M5.18,35.33c1.4-.51,2.74-1.19,3.97-2.03.9-.63,1.64-1.46,2.17-2.41.65-1.16,1.49-2.85,2.52-5.07.02-.03.05-.04.08-.02,0,0,.02.01.02.02.08.15.11.32.11.48.04,2.37.02,4.48-.04,6.34-.02.23-.11.45-.24.64-.04.06-.09.1-.15.13-.81.36-1.76.54-2.51.81-1.05.37-2.7.93-4.94,1.69-1,.3-1.93.79-2.73,1.45-.64.51-1.08,1.24-1.23,2.05-.41,1.94.47,3.93,2.19,4.93.68.38,1.45.6,2.23.64,9.93.01,19.82.01,29.69,0,1.19.03,2.34-.43,3.18-1.27,1.22-1.11,1.67-2.84,1.14-4.41-.72-1.74-2.25-3.01-4.09-3.4-.41-.12-1.51-.49-3.29-1.13-1.28-.46-2.75-.76-4.01-1.28-.06-.03-.12-.07-.16-.12-.26-.35-.39-.77-.38-1.21-.01-2.35,0-4.22.04-5.62,0-.06,0-.13.04-.18.07-.09.19-.11.28-.04.03.02.05.05.06.08.56,1.16,1.27,2.6,2.12,4.32.4.9,1.04,1.67,1.85,2.24,1.37,1,2.88,1.78,4.49,2.3,1.61.84,3.59.39,4.68-1.06.95-1.23.87-2.96-.2-4.09l-.04-.04-.92-.72s-.04-.03-.06-.03c-.87-.4-1.75-.77-2.64-1.12-.42-.14-.78-.41-1.02-.77-.21-.36-.92-1.79-2.11-4.28-.66-1.4-1.39-2.69-1.97-4.04-.54-1.42-1.46-2.67-2.66-3.61-.54-.32-1.1-.59-1.69-.79-.59-.21-1.2-.35-1.82-.4-.67-.07-1.3-.15-1.89-.24-.56-.09-1.32.09-1.81-.01-.06-.02-.09-.07-.08-.13,0-.04.04-.07.08-.08.92-.26,1.78-.69,2.53-1.28,1.61-1.21,2.6-3.08,2.69-5.1-.02-.47-.08-.94-.16-1.4-.03-.35-.1-.7-.21-1.03-.68-2.38-2.57-4.23-4.96-4.86-.1-.03-.2-.05-.31-.05-.21-.01-.45-.03-.75-.07-2.9-.38-5.75,1.03-7.2,3.58-1.46,2.48-1.21,5.61.61,7.83.85,1.05,1.96,1.86,3.21,2.38.04.02.07.06.05.11,0,.02-.03.04-.05.05-.39.11-.8.16-1.21.17-2.16-.09-4.29.59-5.99,1.93-.79.78-1.43,1.71-1.87,2.73-1.31,2.7-2.65,5.39-4,8.06-.04.08-.08.15-.14.21-.6.73-1.41,1.26-2.31,1.54-1.31.4-2.42,1.28-3.12,2.45-.46,1.06-.31,2.29.41,3.2.27.41.66.73,1.11.91,1.09.42,2.29.46,3.4.11M15.79,7.05c.13-3.08,2.73-5.48,5.81-5.36,2.98.12,5.34,2.56,5.36,5.53-.13,3.08-2.73,5.48-5.81,5.36-2.98-.12-5.34-2.56-5.36-5.53M2.72,30.76c.97-.5,1.78-.77,2.61-1.19.72-.29,1.32-.82,1.69-1.51.85-1.54,1.59-3.15,2.17-4.28.95-1.82,1.56-3.31,2.55-5.01.54-.96,1.34-1.74,2.31-2.26,1-.44,2.07-.69,3.16-.72,1.93-.15,3.86-.18,5.79-.07.57.03,1.3.05,2.19.07,1.22.02,2.44.24,3.59.66,1.1.41,2,1.22,2.51,2.27.74,1.41,1.42,2.79,2.06,4.14.81,1.72,1.74,3.49,2.58,5.33.73,1,1.77,1.71,2.97,2.03,1.21.46,2.85,1.21,2.33,2.78-.17.55-.66.95-1.24,1.01-.43,0-.86-.05-1.27-.15-.42-.09-.84-.22-1.23-.41-1.2-.52-2.37-1.13-3.5-1.8-.25-.15-.45-.36-.6-.61-.09-.16-.43-.77-1.03-1.82-.21-.36-.39-.73-.55-1.12-.21-.54-.48-.92-.75-1.48-.79-1.66-1.48-3.07-2.05-4.24-.77-1.56-1.86-.66-1.89.61-.04,1.93-.06,4.87-.05,8.81-.1,1.01.2,2.03.84,2.82.74.55,1.59.95,2.49,1.16,1.15.29,2.29.63,3.41,1.04.34.12.87.29,1.57.5.75.23,1.48.52,2.17.88.88.42,1.52,1.23,1.71,2.19.01.08.01.17,0,.25-.11,1.25-1,2.29-2.21,2.59-.27.06-.54.08-.82.07-2.83.02-7.38.02-13.63,0-.02,0-.03-.01-.03-.03,0,0,0-.01,0-.02.67-.95.66-2.23-.03-3.17-.05-.08-.03-.19.05-.24.02-.02.05-.02.08-.03l9.3-.61c.44-.03.81-.36.87-.8h0c.07-.32-.13-.63-.44-.7-.02,0-.05,0-.07-.01-1.3-.12-2.78.14-4.13.14-1.79.01-3.31.23-4.94.25-.41,0-1.01.04-1.78.11-.59.07-1.19.09-1.78.07-1.25-.12-2.36-.2-3.35-.24-.14,0-.3-.09-.45-.09-.55-.03-1.35-.11-2.39-.24-1.26-.25-2.55-.21-3.79.13-.05.04-.09.09-.12.14-.08.16-.15.24-.21.28-.23.09-.21.43.03.58.6.29,1.26.42,1.93.39,1.75.22,3.03.35,3.86.4,1.02.13,2.05.21,3.08.22.02,0,.05,0,.07,0l1.83.24s.07.02.11.03l.55.25c.06.03.11.07.14.12.41.51.53,1.19.32,1.81-.01.03-.03.06-.06.08l-.84.78s-.1.07-.16.07c-.43.05-.86.07-1.3.07H7.64c-.73.05-1.47-.03-2.17-.24-.92-.38-1.59-1.21-1.76-2.2-.2-1.76,1.01-2.77,2.56-3.3l2.3-.79c.23-.08,1.01-.31,2.33-.7,1.24-.36,2.45-.79,3.63-1.29.1-.04.19-.11.26-.19.47-.47.76-1.09.81-1.75.02-.77.05-1.72.1-2.85.12-2.63.07-5.26-.15-7.89-.01-.16-.18-.35-.5-.58-.06-.04-.12-.06-.19-.06-.33,0-.64.12-.88.35-.04.04-.07.09-.1.14-.64,1.4-1.65,3.46-3.01,6.18-.4.8-.81,1.48-1.21,2.22-1.25,1.64-2.99,2.84-4.98,3.41-.55.18-1.13.25-1.71.21-.08,0-.15-.02-.23-.04-.73-.22-1.19-.94-1.1-1.69.08-.64.48-1.19,1.06-1.48"/>
      </g>
    </g>
  </g>
</svg>