<?xml version="1.0" encoding="UTF-8"?>
<svg id="Layer_2" data-name="Layer 2" xmlns="http://www.w3.org/2000/svg" xmlns:xlink="http://www.w3.org/1999/xlink" viewBox="0 0 41.35 45">
  <defs>
    <style>
      .cls-1 {
        fill: none;
      }

      .cls-2 {
        clip-path: url(#clippath);
      }
    </style>
    <clipPath id="clippath">
      <rect class="cls-1" y=".02" width="41.35" height="44.98"/>
    </clipPath>
  </defs>
  <g id="Layer_1-2" data-name="Layer 1">
    <g class="cls-2">
      <g id="Grupo_92" data-name="Grupo 92">
        <path id="Caminho_76" data-name="Caminho 76" d="M7.45,30.33c-2.28.7-4.33,1.97-5.98,3.7-.64.68-1.1,1.51-1.33,2.41-.22.9-.18,1.84.13,2.71.64,1.42,1.73,2.58,3.11,3.3.06.04.45.22,1.16.53.38.18.78.32,1.18.44,1.52.46,3.07.81,4.64,1.05,1.4.18,3.31.32,5.73.42,3.24.13,6.7.12,10.38-.03,1.86-.04,3.71-.19,5.55-.44,1.8-.27,3.56-.76,5.24-1.46.9-.43,1.72-1,2.43-1.69,1.48-1.36,2.03-3.45,1.41-5.36-1.2-2.46-3.31-4.35-5.89-5.27-.71-.3-1.59-.63-2.63-.97-.16-.05-.32-.08-.48-.07-.09,0-.16-.06-.17-.14,0-.05.02-.1.06-.13.71-.4,1.36-.91,1.91-1.51.49-.72.75-1.57.75-2.44-.01-.92-.32-1.81-.88-2.54-.38-.52-.82-1.01-1.3-1.45-1.57-1.19-3.34-2.09-5.23-2.66-.06-.02-.09-.08-.07-.14.01-.03.04-.06.07-.07.9-.26,1.77-.61,2.6-1.04.78-.37,1.47-.92,2-1.6,1.32-1.89.86-4.5-1.04-5.82-.18-.13-.38-.24-.58-.34-1.67-.99-3.53-1.63-5.46-1.88-.1-.01-.18-.11-.16-.21,0-.04.02-.07.05-.1.85-.88,1.27-2.08,1.15-3.29-.3-2.15-1.99-3.84-4.14-4.14-.78-.1-1.56-.13-2.34-.09-1.56.03-3.04.71-4.09,1.86-.32.38-.59.79-.83,1.23-.67,1.65-.22,3.54,1.14,4.7.02.02.02.06,0,.08,0,0-.02.01-.03.02-1.18.27-2.33.65-3.44,1.14-.43.2-.84.45-1.21.74-1.52.9-2.39,2.6-2.22,4.36,0,.09.03.17.06.25.44,1.28,1.35,2.33,2.56,2.94.04.02.06.08.04.12,0,0-.01.02-.02.02-.09.09-.21.14-.33.16-.82.1-1.62.29-2.39.58-.61.25-1.19.59-1.7,1-.54.39-1.05.81-1.53,1.27-1.33,1.19-2.02,2.94-1.86,4.71.32,2.26,1.93,4.12,4.12,4.77.07.02.11.1.09.17,0,0,0,.02-.01.02-.05.09-.13.15-.23.17M17.16,2.32c.85-.48,1.82-.7,2.8-.66.97-.05,1.94.17,2.8.64,1.28.65,1.79,2.21,1.15,3.49-.05.09-.1.18-.16.27-.48.77-1.3,1.27-2.21,1.34-.2.02-.72.02-1.56.03-.84,0-1.36,0-1.56-.02-.91-.06-1.74-.56-2.22-1.33-.8-1.19-.49-2.81.7-3.61.09-.06.18-.11.27-.16M10.31,14.11c-.13-.45-.13-.92,0-1.37.24-.64.69-1.18,1.27-1.52.54-.4,1.13-.74,1.75-1.01,1.37-.57,2.81-.92,4.29-1.05,1.52-.07,3.06-.09,4.6-.05,1.59.05,3.16.34,4.67.87.48.17.79.27.89.3,1.46.43,2.64,1.48,3.24,2.88.03.08.04.16.03.24-.23,1.4-1.23,2.55-2.58,2.99-.12.04-.58.17-1.37.39-2.99.72-6.09.93-9.15.63-1.51-.1-3-.37-4.45-.79-1.39-.29-2.56-1.21-3.18-2.49M5.55,26.32c-.54-.99-.6-2.17-.17-3.21.04-.09.09-.17.14-.24.64-.9,1.42-1.69,2.31-2.34,1.01-.6,2.1-1.05,3.25-1.33,1.17-.47,2.45-.6,3.69-.4.04.01.08.02.13.02,1.51.13,2.79.25,3.85.36.86.09,1.73.14,2.59.14,1.16-.04,2.31.06,3.44.3,1.69.44,3.34,1.04,4.93,1.78.76.39,1.45.89,2.06,1.48,1.19,1.43,1.84,3.1.29,4.51-1.11.92-2.41,1.57-3.8,1.93-.41.03-.82.1-1.22.2-.15.07-.32.1-.48.09-.38.01-.76.07-1.13.17-.11.03-.23.04-.35.05-1.13.04-2.15.24-3.19.24-1.89.03-3.62.03-5.19,0-1-.02-1.85-.19-2.97-.24-.11,0-.22-.02-.33-.05-.59-.13-1.2-.25-1.84-.35-.41-.06-.82-.15-1.22-.27-.91-.23-1.8-.55-2.66-.95-.9-.38-1.66-1.05-2.13-1.9M10.38,31.03c.24-.02.48-.02.72,0,.09,0,.18.02.26.05.81.26,1.64.4,2.49.42.09,0,.17.02.26.05.54.12,1.08.18,1.63.17,1.42.04,3.16.07,5.21.09.7,0,2.15-.1,4.36-.3.22-.02.59-.08,1.11-.18,1.05-.21,2.02-.39,2.9-.54.46-.08.94-.03,1.39.13.4.13.72.15,1.12.27.85.26,1.6.51,2.23.76,2.45.97,5.66,2.91,5.73,5.9,0,.08,0,.16-.03.24-.37,1.19-1.19,2.19-2.27,2.8-1.08.65-2.24,1.13-3.46,1.45-.72.19-1.77.38-3.14.57-1.05.14-2.11.22-3.16.24-3.71.12-7.57.12-11.57.01-1.73-.05-2.95-.17-4.89-.34-1.25-.14-2.49-.35-3.71-.63-.98-.21-1.93-.55-2.82-1.03-1.58-.83-2.91-1.49-3.02-3.38-.06-.86.18-1.71.68-2.41.53-.66,1.19-1.21,1.93-1.62,1.05-.67,2.14-1.26,3.27-1.77.89-.42,1.82-.73,2.77-.95"/>
      </g>
    </g>
  </g>
</svg>