<?xml version="1.0" encoding="UTF-8"?>
<svg id="Layer_2" data-name="Layer 2" xmlns="http://www.w3.org/2000/svg" viewBox="0 0 36.8 40.43">
  <g id="Layer_1-2" data-name="Layer 1">
    <g>
      <path fill="#2F7888" d="M27.78,31.27c-1.87-1.59-3.62-2.94-3.85-5.31-.18-1.89-.3-3.78-.38-5.67-.01-.32.34-.65.52-.97.22.3.61.59.64.9.14,1.63.2,3.26.27,4.89-.03,1.68.86,3.25,2.33,4.08,2.23,1.16,4.6,2.06,7.08,3.09.48.2,1.02-.08,1.12-.59.05-.26.07-.44,0-.53-.46-.59-1.04-1.08-1.7-1.45-2.6-1.21-5-2.57-5.46-5.77-.17-1.2-.31-2.4-.41-3.61-.32-3.94-1.89-6.33-5.02-7.24-2.68-.8-5.53-.87-8.25-.2-2.79.47-4.95,2.7-5.32,5.51-.2.92-.33,1.86-.38,2.81.22,3.82-2.22,7.3-5.9,8.38-.46.13-.89.38-1.23.72-.06.06-.12.13-.16.21-.21.39-.27.84-.19,1.27.03.16.82.38,1.15.26,2.15-.82,4.32-1.63,6.38-2.64,1.73-.89,2.82-2.68,2.81-4.63.09-1.39.14-2.79.27-4.18,0-.05.01-.1.03-.15.1-.42.26-.83.47-1.22l.52.2c-.05,3.85.72,7.97-3.05,10.81-.54.41-.41,1.25.24,1.45,2.84.88,5.38,1.66,7.92,2.44.15.04.31.04.47,0,2.95-.9,5.89-1.82,9.11-2.82"/>
      <path fill="#2F7888" d="M12.21,39.22c3.94,0,7.88.04,11.82-.01,2.2-.03,4.41-.12,6.61-.34,1.71-.07,3.31-.86,4.4-2.17.75-.72.78-1.91.06-2.66-.23-.24-.52-.41-.83-.51-2.51-1.39-5.52-1.58-8.18-.5-.9.39-1.93.49-2.87.81-3.23,1.07-6.46,2.13-9.65,3.29-.78.28-1.7.75-1.36,2.08"/>
      <path fill="#2F7888" d="M16.22,34.68c-2.06-.52-4.09-1.16-6.08-1.89-2.36-.93-5.02-.75-7.23.5-1.03.35-1.59,1.47-1.24,2.51.07.22.19.43.33.61.59.86,1.43,1.52,2.41,1.9,2.06.49,4.15.86,6.25,1.13.46-3.52,3.37-3.5,5.57-4.75"/>
      <path fill="#2F7888" d="M13.98,5.74c-.03,2.42,1.88,4.43,4.3,4.52,2.39-.2,4.26-2.15,4.36-4.55.05-2.36-1.79-4.34-4.15-4.46-2.47.03-4.47,2.02-4.51,4.48"/>
    </g>
  </g>
</svg>