<?xml version="1.0" encoding="UTF-8"?>
<svg id="Layer_2" data-name="Layer 2" xmlns="http://www.w3.org/2000/svg" xmlns:xlink="http://www.w3.org/1999/xlink" viewBox="0 0 33.8 34.1">
  <defs>
    <style>
      .cls-1 {
        fill: none;
      }

      .cls-2 {
        fill: #307988;
      }

      .cls-3 {
        clip-path: url(#clippath);
      }
    </style>
    <clipPath id="clippath">
      <rect class="cls-1" y="0" width="33.79" height="34.1"/>
    </clipPath>
  </defs>
  <g id="Layer_1-2" data-name="Layer 1">
    <g id="Grupo_99" data-name="Grupo 99">
      <g class="cls-3">
        <g id="Grupo_26" data-name="Grupo 26">
          <path id="Caminho_59" data-name="Caminho 59" class="cls-2" d="M19.92,30.47H5.21c-.87,0-1.58-.71-1.58-1.58V5.21c0-.87.71-1.58,1.58-1.58h14.7c1,.04,1.85-.75,1.88-1.75.04-1-.75-1.85-1.75-1.88-.04,0-.09,0-.13,0H5.21C2.33,0,0,2.34,0,5.21v23.68c0,2.88,2.33,5.21,5.21,5.21h14.7c1,.04,1.85-.75,1.88-1.75.04-1-.75-1.85-1.75-1.88-.04,0-.09,0-.13,0"/>
          <path id="Caminho_60" data-name="Caminho 60" class="cls-2" d="M33.35,15.4l-6.72-6.07c-.56-.51-1.42-.46-1.92.09-.23.25-.35.58-.35.92v4.25H8.24c-1-.04-1.85.75-1.88,1.75-.04,1,.75,1.85,1.75,1.88.04,0,.09,0,.13,0h16.11v4.25c0,.75.61,1.36,1.37,1.36.34,0,.66-.13.91-.35l6.73-6.07c.56-.51.6-1.37.1-1.93-.03-.03-.06-.07-.1-.1"/>
        </g>
      </g>
    </g>
  </g>
</svg>