<?xml version="1.0" encoding="UTF-8"?>
<svg id="Layer_2" data-name="Layer 2" xmlns="http://www.w3.org/2000/svg" xmlns:xlink="http://www.w3.org/1999/xlink" viewBox="0 0 49.1 53.95">
  <defs>
    <style>
      .cls-1 {
        fill: none;
      }

      .cls-2 {
        fill: #202020;
      }

      .cls-3 {
        clip-path: url(#clippath);
      }
    </style>
    <clipPath id="clippath">
      <rect class="cls-1" x="0" width="49.07" height="53.92"/>
    </clipPath>
  </defs>
  <g id="Layer_1-2" data-name="Layer 1">
    <g class="cls-3">
      <g id="Grupo_161" data-name="Grupo 161">
        <path id="Caminho_227" data-name="Caminho 227" class="cls-2" d="M26.71,15.02c.84.18,1.63.36,2.43.52,5.28.51,9.33,4.9,9.41,10.2.21,1.95.52,3.88.83,5.82.33,2.41,1.88,4.49,4.1,5.48,1.19.59,2.41,1.13,3.55,1.81,1.67.69,2.47,2.61,1.78,4.28-.07.16-.15.32-.24.48-.13.42-.12.86.03,1.27,1.13,2.32.28,5.12-1.95,6.41-3.06,1.92-6.64,2.83-10.24,2.61-8.99.02-17.98-.1-26.97-.45-2.22-.2-4.36-.91-6.25-2.08-2.43-1.35-3.3-4.4-1.95-6.83.02-.03.03-.06.05-.08-1.99-2.8-1.73-4.37,1.18-5.87,8.45-4.36,6.81-4.37,8.19-12.22.12-.69.21-1.38.35-2.07,1.14-5.61,3.67-7.97,9.41-8.79.55-.08,1.09-.21,1.41-.27-1.49-1.13-2.79-2.49-3.86-4.02-.77-1.69-1-3.58-.65-5.4C18.13,2.43,21.18.01,24.69,0c3.17.2,5.89,2.33,6.84,5.36,1.11,3.62-.44,6.76-4.83,9.65M37.05,41.7c-2.49-2.12-4.83-3.92-5.14-7.09-.24-2.52-.4-5.04-.51-7.57-.02-.42.45-.86.69-1.3.3.4.82.79.85,1.21.19,2.17.27,4.34.36,6.52-.04,2.24,1.15,4.33,3.1,5.44,3.35,1.74,6.93,3.04,10.69,4.64.16-1.12.45-1.78.24-2.01-.62-.79-1.39-1.45-2.26-1.93-3.47-1.61-6.67-3.42-7.29-7.69-.23-1.6-.41-3.2-.54-4.81-.43-5.25-2.52-8.45-6.69-9.65-3.58-1.07-7.38-1.16-11.01-.27-3.72.62-6.61,3.6-7.1,7.34-.27,1.23-.44,2.49-.51,3.75.3,5.1-2.96,9.73-7.86,11.18-.68.2-1.29.57-1.77,1.08-.35.55-.47,1.21-.34,1.85.04.21,1.1.5,1.53.34,2.87-1.1,5.76-2.17,8.5-3.52,2.31-1.19,3.76-3.58,3.74-6.18.12-1.89.19-3.79.37-5.68.14-.6.36-1.18.65-1.73l.69.26c-.07,5.73,1.21,11.89-6.03,15.65,4.75,1.47,8.8,2.72,12.85,3.96.2.06.42.06.62,0,3.93-1.21,7.86-2.43,12.15-3.77M16.3,52.31c5.25,0,10.51.05,15.77-.02,2.94-.04,5.89-.17,8.81-.45,2.28-.09,4.41-1.14,5.87-2.9,1-.96,1.04-2.54.08-3.55-.3-.32-.69-.55-1.11-.68-3.35-1.86-7.36-2.1-10.91-.66-1.21.52-2.57.66-3.83,1.07-4.3,1.43-8.61,2.84-12.87,4.39-1.04.38-2.27,1-1.82,2.77M21.64,46.25c-2.74-.7-5.45-1.54-8.1-2.53-3.15-1.25-6.69-1-9.64.66-1.38.47-2.12,1.96-1.65,3.34.1.29.25.57.45.81.79,1.15,1.91,2.03,3.21,2.53,2.75.65,5.53,1.15,8.34,1.51.61-4.7,4.5-4.67,7.42-6.34M18.65,7.65c-.04,3.23,2.5,5.91,5.73,6.03,3.19-.27,5.68-2.87,5.81-6.07.06-3.15-2.39-5.79-5.54-5.95-3.29.04-5.96,2.69-6.01,5.98"/>
      </g>
    </g>
  </g>
</svg>