<?xml version="1.0" encoding="UTF-8"?>
<svg id="Layer_2" data-name="Layer 2" xmlns="http://www.w3.org/2000/svg" xmlns:xlink="http://www.w3.org/1999/xlink" viewBox="0 0 63.04 61.05">
  <defs>
    <style>
      .cls-1 {
        fill: none;
      }

      .cls-2 {
        clip-path: url(#clippath);
      }
    </style>
    <clipPath id="clippath">
      <rect class="cls-1" x="0" width="63.04" height="61.05"/>
    </clipPath>
  </defs>
  <g id="Layer_1-2" data-name="Layer 1">
    <g class="cls-2">
      <g id="Grupo_163" data-name="Grupo 163">
        <path id="Caminho_228" data-name="Caminho 228" d="M31.73,44.94c-9.35-.13-15.77-6.91-15.64-16.55.63-8.56,7.75-15.19,16.34-15.21,8.8.34,15.72,7.66,15.56,16.47-.2,8.65-7.37,15.5-16.02,15.3-.08,0-.15,0-.23,0M18.03,29.14c-.3,7.54,5.57,13.89,13.1,14.19.31.01.63.01.94,0,7.62-.24,13.8-6.26,14.22-13.87-.08-7.92-6.51-14.3-14.43-14.32-7.64.16-13.76,6.36-13.82,14"/>
        <path id="Caminho_229" data-name="Caminho 229" d="M63.04,49.68c-1.72,2.65-4.95,3.89-8,3.09-1.95-.48-3.85-1.12-5.7-1.9-3.74-1.64-8.01-1.58-11.7.17-4.23,1.99-9.12,2.04-13.39.14-4.5-2.04-9.69-1.84-14.01.54-2.76,1.52-6.07,1.73-9,.55-.53-.21-.84-.98-1.25-1.49.6-.11,1.26-.44,1.78-.28,2.74.89,5.73.6,8.26-.79,4.34-2.38,9.54-2.61,14.07-.62,4.16,1.91,8.93,1.93,13.11.07,4.11-1.85,8.81-1.87,12.94-.05,3.79,1.61,7.55,2.92,11.48.39.24-.16.76.09,1.4.19"/>
        <path id="Caminho_230" data-name="Caminho 230" d="M18.24,55.52c2.22.49,4.41,1.13,6.54,1.93,4.06,2.11,8.89,2.11,12.96,0,4.62-2.52,10.31-2,14.4,1.31.53.39.74,1.23,1.09,1.86-.68-.07-1.53.09-2-.24-4.1-3.01-9.6-3.29-13.98-.7-3.73,1.83-8.1,1.83-11.83,0-4.3-1.89-8.6-2.72-12.98-.16-.36.21-1-.06-1.51-.11.22-.52.31-1.37.68-1.52,2.21-.89,4.48-1.62,6.63-2.36"/>
        <path id="Caminho_231" data-name="Caminho 231" d="M33.02,4.89c0,1.25.07,2.51-.04,3.75-.03.34-.57.64-.88.97-.28-.33-.8-.66-.81-1-.07-2.5-.08-5.01,0-7.5.01-.38.68-.72,1.04-1.09.24.38.68.75.71,1.14.09,1.25.03,2.5.03,3.75h-.05"/>
        <path id="Caminho_232" data-name="Caminho 232" d="M11.5,7.5c.31.17.6.37.87.6,1.74,1.91,3.49,3.82,5.16,5.79.27.32.12,1,.16,1.51-.48-.13-1.15-.11-1.45-.42-1.74-1.8-3.42-3.66-5.07-5.55-.27-.38-.42-.83-.41-1.3,0-.19.44-.39.74-.63"/>
        <path id="Caminho_233" data-name="Caminho 233" d="M54.03,7.83c-2.54,2.88-4.61,5.25-6.73,7.56-.34.2-.76.2-1.1.02-.25-.3-.32-.71-.19-1.07,1.99-2.25,4.02-4.47,6.09-6.65.17-.18.74.04,1.93.14"/>
        <path id="Caminho_234" data-name="Caminho 234" d="M12.67,29.06c-.51.37-1.08.65-1.69.82-5.52.48-8.21.08-8.99-1.43h10.43l.24.61"/>
        <path id="Caminho_234-2" data-name="Caminho 234" d="M62.76,29.06c-.51.37-1.08.65-1.69.82-5.52.48-8.21.08-8.99-1.43h10.43l.24.61"/>
      </g>
    </g>
  </g>
</svg>