<?xml version="1.0" encoding="UTF-8"?>
<svg id="Layer_2" data-name="Layer 2" xmlns="http://www.w3.org/2000/svg" xmlns:xlink="http://www.w3.org/1999/xlink" viewBox="0 0 41.2 34.19">
  <defs>
    <style>
      .cls-1 {
        fill: none;
      }

      .cls-2 {
        fill: #307988;
      }

      .cls-3 {
        clip-path: url(#clippath);
      }
    </style>
    <clipPath id="clippath">
      <rect class="cls-1" x="0" width="41.2" height="34.19"/>
    </clipPath>
  </defs>
  <g id="Layer_1-2" data-name="Layer 1">
    <g class="cls-3">
      <g id="Grupo_118" data-name="Grupo 118">
        <path id="Caminho_79" data-name="Caminho 79" class="cls-2" d="M26.23,22.86c-.59.39-1.28.75-1.54,1.47-.3.94.22,1.95,1.17,2.25.24.08.49.1.74.07,1.3-.41,2.47-1.17,3.38-2.19,2.34-2.43,3.46-5.79,3.06-9.14-.54-3.11-2.42-5.82-5.14-7.42-.75-.59-1.76-.73-2.64-.36-.77.54-.95,1.61-.41,2.38.13.19.3.35.5.47,2.34,1.2,3.94,3.47,4.29,6.08.1,2.59-1.2,5.04-3.41,6.4"/>
        <path id="Caminho_80" data-name="Caminho 80" class="cls-2" d="M32.02.9c-.58-.47-1.34-.66-2.08-.52-.85.25-1.33,1.14-1.08,1.99.09.31.28.59.53.79,1.76,1.06,3.35,2.4,4.69,3.97,3.08,3.63,4.29,8.5,3.25,13.15-.89,3.56-2.89,6.75-5.71,9.11-.9.83-2.04,1.34-2.9,2.23-.44.86-.1,1.91.76,2.35.46.23.99.25,1.46.06,7.58-4.17,11.55-12.8,9.79-21.28-1.23-4.94-4.36-9.2-8.72-11.84"/>
        <path id="Caminho_81" data-name="Caminho 81" class="cls-2" d="M8.96,26.21c.45,0,.72.45,1.06.68,2.17,2.03,4.34,4.03,6.54,6.03.61.5,1.25,1.21,2.12,1.1,1.25-.19,2.12-1.34,1.96-2.59.04-9.75.08-19.51.02-29.26.02-1.16-.9-2.11-2.06-2.13-.32,0-.63.06-.92.2-2.34,1.72-4.26,3.94-6.48,5.82-.82.61-1.46,1.68-2.57,1.73-2.29.1-4.59,0-6.89.07-.93-.02-1.71.72-1.73,1.65,0,.01,0,.03,0,.04-.02,4.94,0,9.87.01,14.8.01.95.74,1.73,1.69,1.81,2.41.13,4.83-.04,7.24.05"/>
      </g>
    </g>
  </g>
</svg>