<?xml version="1.0" encoding="UTF-8"?>
<svg id="Layer_2" data-name="Layer 2" xmlns="http://www.w3.org/2000/svg" xmlns:xlink="http://www.w3.org/1999/xlink" viewBox="0 0 41.24 39.17">
  <defs>
    <style>
      .cls-1 {
        fill: none;
      }

      .cls-2 {
        fill: #307988;
      }

      .cls-3 {
        clip-path: url(#clippath);
      }
    </style>
    <clipPath id="clippath">
      <rect class="cls-1" x="0" y="0" width="41.2" height="39.14"/>
    </clipPath>
  </defs>
  <g id="Layer_1-2" data-name="Layer 1">
    <g class="cls-3">
      <g id="Grupo_121" data-name="Grupo 121">
        <path id="Caminho_82" data-name="Caminho 82" class="cls-2" d="M3.25,38.36c1.21.61,2.57.88,3.92.79,9.15-.04,18.31.02,27.45-.02,3.45,0,6.3-2.68,6.52-6.13.05-8.24.02-16.48.04-24.72.14-1.41.02-2.84-.37-4.21C39.9,1.61,37.55,0,34.93,0,25.68.03,16.42.06,7.18,0c-.98-.05-1.97.08-2.91.38C1.73,1.21.02,3.57,0,6.23,0,13.23-.03,20.25.07,27.25c.03,2.03-.17,4.07,0,6.1.18,2.09,1.37,3.96,3.18,5.01M15.12,11.2c1.45-.6,2.83.4,4.06,1.04,2.9,1.74,5.89,3.33,8.78,5.07,1.21.61.91,2.18.86,3.29.04,1-.9,1.51-1.63,1.97-3.19,1.92-6.37,3.86-9.68,5.54-1.51.62-3.25.02-4.07-1.4-.19-1.62-.24-3.25-.17-4.88-.14-2.83.04-5.65.02-8.49-.07-1.06.95-1.76,1.81-2.14"/>
      </g>
    </g>
  </g>
</svg>